Land_normalized_precision_landing05_filtered_grf
version=1
nRows=25
nColumns=37
inDegrees=yes
endheader
time		1_ground_force_vx		1_ground_force_vy		1_ground_force_vz		1_ground_force_px		1_ground_force_py		1_ground_force_pz		1_ground_torque_x		1_ground_torque_y		1_ground_torque_z		2_ground_force_vx		2_ground_force_vy		2_ground_force_vz		2_ground_force_px		2_ground_force_py		2_ground_force_pz		2_ground_torque_x		2_ground_torque_y		2_ground_torque_z		3_ground_force_vx		3_ground_force_vy		3_ground_force_vz		3_ground_force_px		3_ground_force_py		3_ground_force_pz		3_ground_torque_x		3_ground_torque_y		3_ground_torque_z		4_ground_force_vx		4_ground_force_vy		4_ground_force_vz		4_ground_force_px		4_ground_force_py		4_ground_force_pz		4_ground_torque_x		4_ground_torque_y		4_ground_torque_z		
1.292000		-19.350657		989.856292		282.792330		0.077677		0.000000		0.208507		-0.482818		24.697897		7.055949		84.806007		1018.024743		337.115233		-0.145676		0.000000		0.206437		5.676875		68.146102		22.566337		10.547776		-1.845474		-4.979306		0.381129		1.275777		1.884971		-0.009559		0.001672		0.004512		-6.236623		-0.221042		-0.575907		-0.351580		1.268412		1.872847		0.019227		0.000681		0.001775		
1.294652		-15.548840		947.076099		284.968628		0.075398		0.000000		0.204371		-0.377725		23.006521		6.922396		81.062174		986.018416		354.632471		-0.145344		0.000000		0.198763		5.878058		71.500958		25.716559		10.689388		-1.820155		-4.923685		0.381152		1.275771		1.884923		-0.009801		0.001669		0.004515		-6.297027		-0.290338		-0.581719		-0.351552		1.268418		1.872786		0.017289		0.000797		0.001597		
1.297303		-14.311429		904.835494		287.450743		0.073226		0.000000		0.199302		-0.333102		21.060514		6.690429		70.352154		966.018897		356.289695		-0.142595		0.000000		0.193532		5.200786		71.412390		26.338510		10.838979		-1.748681		-4.894248		0.381179		1.275766		1.884878		-0.009667		0.001560		0.004365		-6.323776		-0.374246		-0.590403		-0.351519		1.268418		1.872720		0.014587		0.000863		0.001362		
1.299955		-14.913839		866.088112		287.517966		0.071535		0.000000		0.194599		-0.331933		19.276579		6.399277		57.496268		955.771487		344.389137		-0.138528		0.000000		0.191253		4.130959		68.667811		24.742920		10.976864		-1.644650		-4.897033		0.381208		1.275764		1.884838		-0.009059		0.001357		0.004042		-6.310802		-0.457301		-0.594769		-0.351482		1.268410		1.872653		0.011590		0.000840		0.001093		
1.302606		-16.819346		833.083347		284.050321		0.070585		0.000000		0.191366		-0.363277		17.993959		6.135257		47.247180		952.427690		323.352366		-0.134639		0.000000		0.191813		3.195162		64.405112		21.866425		11.082676		-1.528964		-4.929701		0.381236		1.275767		1.884802		-0.007987		0.001102		0.003552		-6.264193		-0.520587		-0.588438		-0.351448		1.268397		1.872590		0.009019		0.000749		0.000847		
1.305258		-19.607687		806.904674		277.390818		0.070539		0.000000		0.190201		-0.418403		17.218473		5.919220		42.543023		952.828488		298.529194		-0.132060		0.000000		0.194389		2.672893		59.862735		18.756545		11.139474		-1.427373		-4.981090		0.381259		1.275774		1.884767		-0.006571		0.000842		0.002938		-6.198960		-0.547976		-0.566679		-0.351423		1.268381		1.872534		0.007540		0.000666		0.000689		
1.307909		-22.930272		787.481356		268.762459		0.071386		0.000000		0.191012		-0.486523		16.708517		5.702515		43.601370		954.052409		274.716630		-0.131101		0.000000		0.197817		2.558538		55.985304		16.121240		11.136807		-1.364701		-5.035082		0.381275		1.275783		1.884733		-0.005007		0.000613		0.002263		-6.133367		-0.531821		-0.526730		-0.351410		1.268363		1.872485		0.007471		0.000648		0.000641		
1.310561		-26.522126		773.910362		259.597403		0.072870		0.000000		0.193094		-0.556386		16.235381		5.445938		48.290994		953.693197		255.307903		-0.131362		0.000000		0.200995		2.694224		53.208796		14.244356		11.072860		-1.358962		-5.074993		0.381283		1.275791		1.884697		-0.003509		0.000430		0.001608		-6.084236		-0.475452		-0.468105		-0.351409		1.268344		1.872443		0.008671		0.000678		0.000667		
1.313212		-30.226788		764.820626		251.016752		0.074545		0.000000		0.195419		-0.621312		15.721340		5.159823		53.313141		950.073254		241.817987		-0.132107		0.000000		0.203137		2.887720		51.461707		13.098408		10.956387		-1.415649		-5.086815		0.381284		1.275797		1.884661		-0.002254		0.000291		0.001047		-6.063233		-0.393025		-0.393531		-0.351418		1.268326		1.872403		0.010629		0.000689		0.000690		
1.315864		-33.971699		758.831298		243.519892		0.075990		0.000000		0.197072		-0.679203		15.171849		4.868888		55.789773		942.452066		233.925714		-0.132640		0.000000		0.203866		2.981452		50.365492		12.501212		10.804847		-1.525054		-5.062575		0.381280		1.275802		1.884626		-0.001346		0.000190		0.000630		-6.074911		-0.304800		-0.310086		-0.351432		1.268314		1.872363		0.012737		0.000639		0.000650		
1.318515		-37.683709		754.980316		237.036488		0.077003		0.000000		0.197609		-0.728268		14.590669		4.580946		54.290503		931.005032		230.200885		-0.132543		0.000000		0.203189		2.886691		49.502655		12.240057		10.639258		-1.665619		-5.002697		0.381274		1.275803		1.884592		-0.000856		0.000134		0.000402		-6.116567		-0.230276		-0.230088		-0.351448		1.268311		1.872323		0.014546		0.000547		0.000547		
1.321167		-41.245318		752.831309		231.199845		0.077621		0.000000		0.197150		-0.765833		13.978790		4.293018		49.050407		916.681109		228.829415		-0.131720		0.000000		0.201425		2.599495		48.580617		12.127085		10.481329		-1.808669		-4.917109		0.381267		1.275803		1.884563		-0.000872		0.000150		0.000409		-6.177424		-0.183679		-0.170315		-0.351462		1.268317		1.872280		0.015874		0.000472		0.000438		
1.323818		-44.527638		752.337781		225.622316		0.078028		0.000000		0.196231		-0.792703		13.393800		4.016767		41.650505		900.878067		228.166304		-0.130361		0.000000		0.199105		2.196273		47.503803		12.031328		10.350671		-1.925628		-4.822324		0.381261		1.275801		1.884540		-0.001522		0.000283		0.000709		-6.238496		-0.171095		-0.145933		-0.351470		1.268334		1.872237		0.016788		0.000460		0.000393		
1.326470		-47.409793		753.606653		220.087778		0.078417		0.000000		0.195443		-0.813842		12.936549		3.778074		34.107586		884.898266		227.073324		-0.128794		0.000000		0.196771		1.785926		46.334495		11.889871		10.262707		-1.994381		-4.733742		0.381258		1.275799		1.884523		-0.002973		0.000578		0.001371		-6.275939		-0.192404		-0.163513		-0.351473		1.268356		1.872197		0.017442		0.000535		0.000455		
1.329121		-49.749490		756.618983		214.571501		0.078906		0.000000		0.195164		-0.833611		12.678081		3.595421		28.131247		869.713648		224.880056		-0.127353		0.000000		0.194852		1.461719		45.190572		11.684830		10.227797		-2.001833		-4.660836		0.381257		1.275798		1.884512		-0.005368		0.001050		0.002446		-6.265809		-0.243283		-0.216242		-0.351474		1.268380		1.872166		0.017959		0.000697		0.000620		
1.331773		-51.362613		761.046392		209.192798		0.079476		0.000000		0.195412		-0.851767		12.620745		3.469134		24.479333		855.838095		221.321233		-0.126242		0.000000		0.193568		1.262333		44.132986		11.412870		10.249857		-1.946260		-4.605175		0.381256		1.275796		1.884503		-0.008698		0.001651		0.003908		-6.193339		-0.315005		-0.284507		-0.351473		1.268400		1.872145		0.018392		0.000936		0.000845		
1.334424		-52.053289		766.360202		204.161074		0.080017		0.000000		0.195954		-0.864628		12.729571		3.391200		22.838409		843.353318		216.401259		-0.125477		0.000000		0.192922		1.167516		43.112780		11.062581		10.328208		-1.835635		-4.562296		0.381254		1.275795		1.884495		-0.012771		0.002269		0.005641		-6.059616		-0.394394		-0.344707		-0.351474		1.268409		1.872139		0.018796		0.001223		0.001069		
1.337076		-51.702808		772.011525		199.711083		0.080402		0.000000		0.196518		-0.869272		12.979747		3.357714		22.190958		832.032827		210.287679		-0.124919		0.000000		0.192757		1.120283		42.004108		10.616118		10.457612		-1.687070		-4.524536		0.381250		1.275794		1.884487		-0.017203		0.002775		0.007443		-5.884423		-0.463954		-0.378465		-0.351476		1.268407		1.872148		0.019324		0.001523		0.001243		
1.339727		-50.345369		777.558424		196.027321		0.080558		0.000000		0.196927		-0.863929		13.343058		3.363852		21.444822		821.526549		203.263192		-0.124375		0.000000		0.192852		1.062236		40.692747		10.068302		10.625940		-1.525996		-4.484576		0.381242		1.275793		1.884480		-0.021439		0.003078		0.009048		-5.704122		-0.505255		-0.379481		-0.351479		1.268393		1.872170		0.020207		0.001790		0.001344		
1.342379		-48.129778		782.714159		193.181542		0.080474		0.000000		0.197101		-0.846360		13.764126		3.397111		20.046475		811.578507		195.695006		-0.123729		0.000000		0.193020		0.967405		39.164691		9.443786		10.814153		-1.381314		-4.438841		0.381231		1.275793		1.884474		-0.024848		0.003173		0.010199		-5.561750		-0.504948		-0.353740		-0.351482		1.268371		1.872202		0.021602		0.001961		0.001374		
1.345030		-45.208009		787.330115		191.121655		0.080167		0.000000		0.197023		-0.814667		14.188068		3.444101		18.168239		802.144219		188.033227		-0.122992		0.000000		0.193164		0.850146		37.534510		8.798602		10.999535		-1.279598		-4.388312		0.381221		1.275794		1.884474		-0.026895		0.003129		0.010730		-5.494464		-0.459617		-0.313402		-0.351483		1.268348		1.872235		0.023411		0.001958		0.001335		
1.347682		-41.688771		791.387835		189.713761		0.079682		0.000000		0.196742		-0.769504		14.607968		3.501857		16.480013		793.391948		180.815763		-0.122277		0.000000		0.193254		0.748023		36.011246		8.207093		11.160461		-1.239631		-4.337517		0.381211		1.275796		1.884480		-0.027337		0.003037		0.010625		-5.521162		-0.379036		-0.270264		-0.351482		1.268329		1.872267		0.025220		0.001731		0.001234		
1.350333		-37.686910		794.976713		188.787004		0.079085		0.000000		0.196379		-0.714254		15.067038		3.578037		15.669863		785.625055		174.582870		-0.121718		0.000000		0.193294		0.694245		34.806688		7.734827		11.282565		-1.265803		-4.293374		0.381204		1.275799		1.884495		-0.026366		0.002958		0.010033		-5.632823		-0.285149		-0.232004		-0.351481		1.268320		1.872293		0.026464		0.001340		0.001090		
1.352985		-33.377171		798.226456		188.182324		0.078470		0.000000		0.196091		-0.652067		15.594472		3.676405		16.056073		779.199428		169.764614		-0.121406		0.000000		0.193290		0.701654		34.051192		7.418754		11.360901		-1.347553		-4.264162		0.381202		1.275803		1.884517		-0.024498		0.002905		0.009195		-5.797452		-0.204184		-0.202722		-0.351479		1.268321		1.872313		0.026713		0.000941		0.000934		
1.355636		-29.007355		801.241141		187.740378		0.077930		0.000000		0.196002		-0.584902		16.156709		3.785705		17.470318		774.436482		166.577538		-0.121348		0.000000		0.193239		0.761466		33.754716		7.260475		11.398341		-1.460613		-4.257989		0.381206		1.275806		1.884546		-0.022378		0.002867		0.008360		-5.970816		-0.158083		-0.185582		-0.351479		1.268332		1.872330		0.025842		0.000684		0.000804		
